<svg xmlns="http://www.w3.org/2000/svg" viewBox="0 0 64 64">
  <defs>
    <linearGradient id="g" x1="0" y1="0" x2="1" y2="1">
      <stop offset="0%" stop-color="#4f46e5"/>
      <stop offset="100%" stop-color="#22c55e"/>
    </linearGradient>
  </defs>
  <circle cx="32" cy="32" r="30" fill="url(#g)"/>
  <path d="M32 46c-1.1 0-2-.9-2-2V26.83l-5.59 5.58a2 2 0 1 1-2.82-2.82l9-9a2 2 0 0 1 2.82 0l9 9a2 2 0 1 1-2.82 2.82L34 26.83V44c0 1.1-.9 2-2 2z" fill="#ffffff"/>
  <path d="M12 44a20 20 0 1 0 8-32" fill="none" stroke="#ffffff" stroke-width="4" stroke-linecap="round" stroke-opacity="0.4"/>
</svg>
